<svg version="1.1" xmlns="http://www.w3.org/2000/svg" xmlns:xlink="http://www.w3.org/1999/xlink" width="899" height="507"><defs/><g><text fill="#eeeeee" stroke="none" font-family="Arial" font-size="24px" font-style="normal" font-weight="normal" text-decoration="none" x="0" y="0">UNREGISTERED</text><text fill="#eeeeee" stroke="none" font-family="Arial" font-size="24px" font-style="normal" font-weight="normal" text-decoration="none" x="0" y="30">UNREGISTERED</text><text fill="#eeeeee" stroke="none" font-family="Arial" font-size="24px" font-style="normal" font-weight="normal" text-decoration="none" x="0" y="60">UNREGISTERED</text><text fill="#eeeeee" stroke="none" font-family="Arial" font-size="24px" font-style="normal" font-weight="normal" text-decoration="none" x="0" y="90">UNREGISTERED</text><text fill="#eeeeee" stroke="none" font-family="Arial" font-size="24px" font-style="normal" font-weight="normal" text-decoration="none" x="0" y="120">UNREGISTERED</text><text fill="#eeeeee" stroke="none" font-family="Arial" font-size="24px" font-style="normal" font-weight="normal" text-decoration="none" x="0" y="150">UNREGISTERED</text><text fill="#eeeeee" stroke="none" font-family="Arial" font-size="24px" font-style="normal" font-weight="normal" text-decoration="none" x="0" y="180">UNREGISTERED</text><text fill="#eeeeee" stroke="none" font-family="Arial" font-size="24px" font-style="normal" font-weight="normal" text-decoration="none" x="0" y="210">UNREGISTERED</text><text fill="#eeeeee" stroke="none" font-family="Arial" font-size="24px" font-style="normal" font-weight="normal" text-decoration="none" x="0" y="240">UNREGISTERED</text><text fill="#eeeeee" stroke="none" font-family="Arial" font-size="24px" font-style="normal" font-weight="normal" text-decoration="none" x="0" y="270">UNREGISTERED</text><text fill="#eeeeee" stroke="none" font-family="Arial" font-size="24px" font-style="normal" font-weight="normal" text-decoration="none" x="0" y="300">UNREGISTERED</text><text fill="#eeeeee" stroke="none" font-family="Arial" font-size="24px" font-style="normal" font-weight="normal" text-decoration="none" x="0" y="330">UNREGISTERED</text><text fill="#eeeeee" stroke="none" font-family="Arial" font-size="24px" font-style="normal" font-weight="normal" text-decoration="none" x="0" y="360">UNREGISTERED</text><text fill="#eeeeee" stroke="none" font-family="Arial" font-size="24px" font-style="normal" font-weight="normal" text-decoration="none" x="0" y="390">UNREGISTERED</text><text fill="#eeeeee" stroke="none" font-family="Arial" font-size="24px" font-style="normal" font-weight="normal" text-decoration="none" x="0" y="420">UNREGISTERED</text><text fill="#eeeeee" stroke="none" font-family="Arial" font-size="24px" font-style="normal" font-weight="normal" text-decoration="none" x="0" y="450">UNREGISTERED</text><text fill="#eeeeee" stroke="none" font-family="Arial" font-size="24px" font-style="normal" font-weight="normal" text-decoration="none" x="0" y="480">UNREGISTERED</text><text fill="#eeeeee" stroke="none" font-family="Arial" font-size="24px" font-style="normal" font-weight="normal" text-decoration="none" x="200" y="0">UNREGISTERED</text><text fill="#eeeeee" stroke="none" font-family="Arial" font-size="24px" font-style="normal" font-weight="normal" text-decoration="none" x="200" y="30">UNREGISTERED</text><text fill="#eeeeee" stroke="none" font-family="Arial" font-size="24px" font-style="normal" font-weight="normal" text-decoration="none" x="200" y="60">UNREGISTERED</text><text fill="#eeeeee" stroke="none" font-family="Arial" font-size="24px" font-style="normal" font-weight="normal" text-decoration="none" x="200" y="90">UNREGISTERED</text><text fill="#eeeeee" stroke="none" font-family="Arial" font-size="24px" font-style="normal" font-weight="normal" text-decoration="none" x="200" y="120">UNREGISTERED</text><text fill="#eeeeee" stroke="none" font-family="Arial" font-size="24px" font-style="normal" font-weight="normal" text-decoration="none" x="200" y="150">UNREGISTERED</text><text fill="#eeeeee" stroke="none" font-family="Arial" font-size="24px" font-style="normal" font-weight="normal" text-decoration="none" x="200" y="180">UNREGISTERED</text><text fill="#eeeeee" stroke="none" font-family="Arial" font-size="24px" font-style="normal" font-weight="normal" text-decoration="none" x="200" y="210">UNREGISTERED</text><text fill="#eeeeee" stroke="none" font-family="Arial" font-size="24px" font-style="normal" font-weight="normal" text-decoration="none" x="200" y="240">UNREGISTERED</text><text fill="#eeeeee" stroke="none" font-family="Arial" font-size="24px" font-style="normal" font-weight="normal" text-decoration="none" x="200" y="270">UNREGISTERED</text><text fill="#eeeeee" stroke="none" font-family="Arial" font-size="24px" font-style="normal" font-weight="normal" text-decoration="none" x="200" y="300">UNREGISTERED</text><text fill="#eeeeee" stroke="none" font-family="Arial" font-size="24px" font-style="normal" font-weight="normal" text-decoration="none" x="200" y="330">UNREGISTERED</text><text fill="#eeeeee" stroke="none" font-family="Arial" font-size="24px" font-style="normal" font-weight="normal" text-decoration="none" x="200" y="360">UNREGISTERED</text><text fill="#eeeeee" stroke="none" font-family="Arial" font-size="24px" font-style="normal" font-weight="normal" text-decoration="none" x="200" y="390">UNREGISTERED</text><text fill="#eeeeee" stroke="none" font-family="Arial" font-size="24px" font-style="normal" font-weight="normal" text-decoration="none" x="200" y="420">UNREGISTERED</text><text fill="#eeeeee" stroke="none" font-family="Arial" font-size="24px" font-style="normal" font-weight="normal" text-decoration="none" x="200" y="450">UNREGISTERED</text><text fill="#eeeeee" stroke="none" font-family="Arial" font-size="24px" font-style="normal" font-weight="normal" text-decoration="none" x="200" y="480">UNREGISTERED</text><text fill="#eeeeee" stroke="none" font-family="Arial" font-size="24px" font-style="normal" font-weight="normal" text-decoration="none" x="400" y="0">UNREGISTERED</text><text fill="#eeeeee" stroke="none" font-family="Arial" font-size="24px" font-style="normal" font-weight="normal" text-decoration="none" x="400" y="30">UNREGISTERED</text><text fill="#eeeeee" stroke="none" font-family="Arial" font-size="24px" font-style="normal" font-weight="normal" text-decoration="none" x="400" y="60">UNREGISTERED</text><text fill="#eeeeee" stroke="none" font-family="Arial" font-size="24px" font-style="normal" font-weight="normal" text-decoration="none" x="400" y="90">UNREGISTERED</text><text fill="#eeeeee" stroke="none" font-family="Arial" font-size="24px" font-style="normal" font-weight="normal" text-decoration="none" x="400" y="120">UNREGISTERED</text><text fill="#eeeeee" stroke="none" font-family="Arial" font-size="24px" font-style="normal" font-weight="normal" text-decoration="none" x="400" y="150">UNREGISTERED</text><text fill="#eeeeee" stroke="none" font-family="Arial" font-size="24px" font-style="normal" font-weight="normal" text-decoration="none" x="400" y="180">UNREGISTERED</text><text fill="#eeeeee" stroke="none" font-family="Arial" font-size="24px" font-style="normal" font-weight="normal" text-decoration="none" x="400" y="210">UNREGISTERED</text><text fill="#eeeeee" stroke="none" font-family="Arial" font-size="24px" font-style="normal" font-weight="normal" text-decoration="none" x="400" y="240">UNREGISTERED</text><text fill="#eeeeee" stroke="none" font-family="Arial" font-size="24px" font-style="normal" font-weight="normal" text-decoration="none" x="400" y="270">UNREGISTERED</text><text fill="#eeeeee" stroke="none" font-family="Arial" font-size="24px" font-style="normal" font-weight="normal" text-decoration="none" x="400" y="300">UNREGISTERED</text><text fill="#eeeeee" stroke="none" font-family="Arial" font-size="24px" font-style="normal" font-weight="normal" text-decoration="none" x="400" y="330">UNREGISTERED</text><text fill="#eeeeee" stroke="none" font-family="Arial" font-size="24px" font-style="normal" font-weight="normal" text-decoration="none" x="400" y="360">UNREGISTERED</text><text fill="#eeeeee" stroke="none" font-family="Arial" font-size="24px" font-style="normal" font-weight="normal" text-decoration="none" x="400" y="390">UNREGISTERED</text><text fill="#eeeeee" stroke="none" font-family="Arial" font-size="24px" font-style="normal" font-weight="normal" text-decoration="none" x="400" y="420">UNREGISTERED</text><text fill="#eeeeee" stroke="none" font-family="Arial" font-size="24px" font-style="normal" font-weight="normal" text-decoration="none" x="400" y="450">UNREGISTERED</text><text fill="#eeeeee" stroke="none" font-family="Arial" font-size="24px" font-style="normal" font-weight="normal" text-decoration="none" x="400" y="480">UNREGISTERED</text><text fill="#eeeeee" stroke="none" font-family="Arial" font-size="24px" font-style="normal" font-weight="normal" text-decoration="none" x="600" y="0">UNREGISTERED</text><text fill="#eeeeee" stroke="none" font-family="Arial" font-size="24px" font-style="normal" font-weight="normal" text-decoration="none" x="600" y="30">UNREGISTERED</text><text fill="#eeeeee" stroke="none" font-family="Arial" font-size="24px" font-style="normal" font-weight="normal" text-decoration="none" x="600" y="60">UNREGISTERED</text><text fill="#eeeeee" stroke="none" font-family="Arial" font-size="24px" font-style="normal" font-weight="normal" text-decoration="none" x="600" y="90">UNREGISTERED</text><text fill="#eeeeee" stroke="none" font-family="Arial" font-size="24px" font-style="normal" font-weight="normal" text-decoration="none" x="600" y="120">UNREGISTERED</text><text fill="#eeeeee" stroke="none" font-family="Arial" font-size="24px" font-style="normal" font-weight="normal" text-decoration="none" x="600" y="150">UNREGISTERED</text><text fill="#eeeeee" stroke="none" font-family="Arial" font-size="24px" font-style="normal" font-weight="normal" text-decoration="none" x="600" y="180">UNREGISTERED</text><text fill="#eeeeee" stroke="none" font-family="Arial" font-size="24px" font-style="normal" font-weight="normal" text-decoration="none" x="600" y="210">UNREGISTERED</text><text fill="#eeeeee" stroke="none" font-family="Arial" font-size="24px" font-style="normal" font-weight="normal" text-decoration="none" x="600" y="240">UNREGISTERED</text><text fill="#eeeeee" stroke="none" font-family="Arial" font-size="24px" font-style="normal" font-weight="normal" text-decoration="none" x="600" y="270">UNREGISTERED</text><text fill="#eeeeee" stroke="none" font-family="Arial" font-size="24px" font-style="normal" font-weight="normal" text-decoration="none" x="600" y="300">UNREGISTERED</text><text fill="#eeeeee" stroke="none" font-family="Arial" font-size="24px" font-style="normal" font-weight="normal" text-decoration="none" x="600" y="330">UNREGISTERED</text><text fill="#eeeeee" stroke="none" font-family="Arial" font-size="24px" font-style="normal" font-weight="normal" text-decoration="none" x="600" y="360">UNREGISTERED</text><text fill="#eeeeee" stroke="none" font-family="Arial" font-size="24px" font-style="normal" font-weight="normal" text-decoration="none" x="600" y="390">UNREGISTERED</text><text fill="#eeeeee" stroke="none" font-family="Arial" font-size="24px" font-style="normal" font-weight="normal" text-decoration="none" x="600" y="420">UNREGISTERED</text><text fill="#eeeeee" stroke="none" font-family="Arial" font-size="24px" font-style="normal" font-weight="normal" text-decoration="none" x="600" y="450">UNREGISTERED</text><text fill="#eeeeee" stroke="none" font-family="Arial" font-size="24px" font-style="normal" font-weight="normal" text-decoration="none" x="600" y="480">UNREGISTERED</text><text fill="#eeeeee" stroke="none" font-family="Arial" font-size="24px" font-style="normal" font-weight="normal" text-decoration="none" x="800" y="0">UNREGISTERED</text><text fill="#eeeeee" stroke="none" font-family="Arial" font-size="24px" font-style="normal" font-weight="normal" text-decoration="none" x="800" y="30">UNREGISTERED</text><text fill="#eeeeee" stroke="none" font-family="Arial" font-size="24px" font-style="normal" font-weight="normal" text-decoration="none" x="800" y="60">UNREGISTERED</text><text fill="#eeeeee" stroke="none" font-family="Arial" font-size="24px" font-style="normal" font-weight="normal" text-decoration="none" x="800" y="90">UNREGISTERED</text><text fill="#eeeeee" stroke="none" font-family="Arial" font-size="24px" font-style="normal" font-weight="normal" text-decoration="none" x="800" y="120">UNREGISTERED</text><text fill="#eeeeee" stroke="none" font-family="Arial" font-size="24px" font-style="normal" font-weight="normal" text-decoration="none" x="800" y="150">UNREGISTERED</text><text fill="#eeeeee" stroke="none" font-family="Arial" font-size="24px" font-style="normal" font-weight="normal" text-decoration="none" x="800" y="180">UNREGISTERED</text><text fill="#eeeeee" stroke="none" font-family="Arial" font-size="24px" font-style="normal" font-weight="normal" text-decoration="none" x="800" y="210">UNREGISTERED</text><text fill="#eeeeee" stroke="none" font-family="Arial" font-size="24px" font-style="normal" font-weight="normal" text-decoration="none" x="800" y="240">UNREGISTERED</text><text fill="#eeeeee" stroke="none" font-family="Arial" font-size="24px" font-style="normal" font-weight="normal" text-decoration="none" x="800" y="270">UNREGISTERED</text><text fill="#eeeeee" stroke="none" font-family="Arial" font-size="24px" font-style="normal" font-weight="normal" text-decoration="none" x="800" y="300">UNREGISTERED</text><text fill="#eeeeee" stroke="none" font-family="Arial" font-size="24px" font-style="normal" font-weight="normal" text-decoration="none" x="800" y="330">UNREGISTERED</text><text fill="#eeeeee" stroke="none" font-family="Arial" font-size="24px" font-style="normal" font-weight="normal" text-decoration="none" x="800" y="360">UNREGISTERED</text><text fill="#eeeeee" stroke="none" font-family="Arial" font-size="24px" font-style="normal" font-weight="normal" text-decoration="none" x="800" y="390">UNREGISTERED</text><text fill="#eeeeee" stroke="none" font-family="Arial" font-size="24px" font-style="normal" font-weight="normal" text-decoration="none" x="800" y="420">UNREGISTERED</text><text fill="#eeeeee" stroke="none" font-family="Arial" font-size="24px" font-style="normal" font-weight="normal" text-decoration="none" x="800" y="450">UNREGISTERED</text><text fill="#eeeeee" stroke="none" font-family="Arial" font-size="24px" font-style="normal" font-weight="normal" text-decoration="none" x="800" y="480">UNREGISTERED</text><g transform="translate(-94,-22) scale(1,1)"><rect fill="#C0C0C0" stroke="none" x="215" y="84" width="149.6689453125" height="155" opacity="0.2"/></g><g transform="translate(-94,-22) scale(1,1)"><rect fill="#C0C0C0" stroke="none" x="364.6689453125" y="79" width="9" height="9" opacity="0.2"/></g><g transform="translate(-94,-22) scale(1,1)"><rect fill="#ffffff" stroke="none" x="208" y="77" width="149.6689453125" height="155"/></g><g transform="translate(-94,-22) scale(1,1)"><path fill="none" stroke="#000000" d="M 208 77 L 357.6689453125 77 L 357.6689453125 232 L 208 232 L 208 77 Z Z" stroke-miterlimit="10"/></g><g transform="translate(-94,-22) scale(1,1)"><path fill="none" stroke="#000000" d="M 208 102 L 357.6689453125 102" stroke-miterlimit="10"/></g><g transform="translate(-94,-22) scale(1,1)"><path fill="none" stroke="#000000" d="M 208 140 L 357.6689453125 140" stroke-miterlimit="10"/></g><g transform="translate(-94,-22) scale(1,1)"><g><path fill="none" stroke="none"/><text fill="#000000" stroke="none" font-family="Arial" font-size="13px" font-style="normal" font-weight="bold" text-decoration="none" x="268.380859375" y="95">User</text></g></g><g transform="translate(-94,-22) scale(1,1)"><g><path fill="none" stroke="none"/><text fill="#000000" stroke="none" font-family="Arial" font-size="13px" font-style="normal" font-weight="normal" text-decoration="none" x="213" y="118">+Name</text></g></g><g transform="translate(-94,-22) scale(1,1)"><g><path fill="none" stroke="none"/><text fill="#000000" stroke="none" font-family="Arial" font-size="13px" font-style="normal" font-weight="normal" text-decoration="none" x="213" y="133">+ID</text></g></g><g transform="translate(-94,-22) scale(1,1)"><g><path fill="none" stroke="none"/><text fill="#000000" stroke="none" font-family="Arial" font-size="13px" font-style="normal" font-weight="normal" text-decoration="none" x="213" y="156">+login()</text></g></g><g transform="translate(-94,-22) scale(1,1)"><g><path fill="none" stroke="none"/><text fill="#000000" stroke="none" font-family="Arial" font-size="13px" font-style="normal" font-weight="normal" text-decoration="none" x="213" y="171">+GetBook()</text></g></g><g transform="translate(-94,-22) scale(1,1)"><rect fill="#ffffff" stroke="none" x="357.6689453125" y="72" width="9" height="9"/></g><g transform="translate(-94,-22) scale(1,1)"><path fill="none" stroke="#000000" d="M 357.6689453125 72 L 366.6689453125 72 L 366.6689453125 81 L 357.6689453125 81 L 357.6689453125 72 Z Z" stroke-miterlimit="10" stroke-dasharray="3"/></g><g transform="translate(-94,-22) scale(1,1)"><rect fill="#C0C0C0" stroke="none" x="111" y="327" width="111" height="143" opacity="0.2"/></g><g transform="translate(-94,-22) scale(1,1)"><rect fill="#ffffff" stroke="none" x="104" y="320" width="111" height="143"/></g><g transform="translate(-94,-22) scale(1,1)"><path fill="none" stroke="#000000" d="M 104 320 L 215 320 L 215 463 L 104 463 L 104 320 Z Z" stroke-miterlimit="10"/></g><g transform="translate(-94,-22) scale(1,1)"><path fill="none" stroke="#000000" d="M 104 345 L 215 345" stroke-miterlimit="10"/></g><g transform="translate(-94,-22) scale(1,1)"><path fill="none" stroke="#000000" d="M 104 413 L 215 413" stroke-miterlimit="10"/></g><g transform="translate(-94,-22) scale(1,1)"><g><path fill="none" stroke="none"/><text fill="#000000" stroke="none" font-family="Arial" font-size="13px" font-style="normal" font-weight="bold" text-decoration="none" x="135.30908203125" y="338">Student</text></g></g><g transform="translate(-94,-22) scale(1,1)"><g><path fill="none" stroke="none"/><text fill="#000000" stroke="none" font-family="Arial" font-size="13px" font-style="normal" font-weight="normal" text-decoration="none" x="109" y="361">+Name</text></g></g><g transform="translate(-94,-22) scale(1,1)"><g><path fill="none" stroke="none"/><text fill="#000000" stroke="none" font-family="Arial" font-size="13px" font-style="normal" font-weight="normal" text-decoration="none" x="109" y="376">+ID</text></g></g><g transform="translate(-94,-22) scale(1,1)"><g><path fill="none" stroke="none"/><text fill="#000000" stroke="none" font-family="Arial" font-size="13px" font-style="normal" font-weight="normal" text-decoration="none" x="109" y="391">+Dept</text></g></g><g transform="translate(-94,-22) scale(1,1)"><g><path fill="none" stroke="none"/><text fill="#000000" stroke="none" font-family="Arial" font-size="13px" font-style="normal" font-weight="normal" text-decoration="none" x="109" y="406">+Reg.NO</text></g></g><g transform="translate(-94,-22) scale(1,1)"><g><path fill="none" stroke="none"/><text fill="#000000" stroke="none" font-family="Arial" font-size="13px" font-style="normal" font-weight="normal" text-decoration="none" x="109" y="429">+Login()</text></g></g><g transform="translate(-94,-22) scale(1,1)"><g><path fill="none" stroke="none"/><text fill="#000000" stroke="none" font-family="Arial" font-size="13px" font-style="normal" font-weight="normal" text-decoration="none" x="109" y="444">+View Catelog()</text></g></g><g transform="translate(-94,-22) scale(1,1)"><rect fill="#C0C0C0" stroke="none" x="351" y="343" width="111" height="143" opacity="0.2"/></g><g transform="translate(-94,-22) scale(1,1)"><rect fill="#ffffff" stroke="none" x="344" y="336" width="111" height="143"/></g><g transform="translate(-94,-22) scale(1,1)"><path fill="none" stroke="#000000" d="M 344 336 L 455 336 L 455 479 L 344 479 L 344 336 Z Z" stroke-miterlimit="10"/></g><g transform="translate(-94,-22) scale(1,1)"><path fill="none" stroke="#000000" d="M 344 361 L 455 361" stroke-miterlimit="10"/></g><g transform="translate(-94,-22) scale(1,1)"><path fill="none" stroke="#000000" d="M 344 414 L 455 414" stroke-miterlimit="10"/></g><g transform="translate(-94,-22) scale(1,1)"><g><path fill="none" stroke="none"/><text fill="#000000" stroke="none" font-family="Arial" font-size="13px" font-style="normal" font-weight="bold" text-decoration="none" x="371.687744140625" y="354">Librarian</text></g></g><g transform="translate(-94,-22) scale(1,1)"><g><path fill="none" stroke="none"/><text fill="#000000" stroke="none" font-family="Arial" font-size="13px" font-style="normal" font-weight="normal" text-decoration="none" x="349" y="377">+Name</text></g></g><g transform="translate(-94,-22) scale(1,1)"><g><path fill="none" stroke="none"/><text fill="#000000" stroke="none" font-family="Arial" font-size="13px" font-style="normal" font-weight="normal" text-decoration="none" x="349" y="392">+ID</text></g></g><g transform="translate(-94,-22) scale(1,1)"><g><path fill="none" stroke="none"/><text fill="#000000" stroke="none" font-family="Arial" font-size="13px" font-style="normal" font-weight="normal" text-decoration="none" x="349" y="407">+Admin_ID</text></g></g><g transform="translate(-94,-22) scale(1,1)"><g><path fill="none" stroke="none"/><text fill="#000000" stroke="none" font-family="Arial" font-size="13px" font-style="normal" font-weight="normal" text-decoration="none" x="349" y="430">+Login()</text></g></g><g transform="translate(-94,-22) scale(1,1)"><g><path fill="none" stroke="none"/><text fill="#000000" stroke="none" font-family="Arial" font-size="13px" font-style="normal" font-weight="normal" text-decoration="none" x="349" y="445">+Update()</text></g></g><g transform="translate(-94,-22) scale(1,1)"><g><path fill="none" stroke="none"/><text fill="#000000" stroke="none" font-family="Arial" font-size="13px" font-style="normal" font-weight="normal" text-decoration="none" x="349" y="460">+Append_fine()</text></g></g><g transform="translate(-94,-22) scale(1,1)"><rect fill="#C0C0C0" stroke="none" x="511" y="63" width="159" height="184" opacity="0.2"/></g><g transform="translate(-94,-22) scale(1,1)"><rect fill="#ffffff" stroke="none" x="504" y="56" width="159" height="184"/></g><g transform="translate(-94,-22) scale(1,1)"><path fill="none" stroke="#000000" d="M 504 56 L 663 56 L 663 240 L 504 240 L 504 56 Z Z" stroke-miterlimit="10"/></g><g transform="translate(-94,-22) scale(1,1)"><path fill="none" stroke="#000000" d="M 504 81 L 663 81" stroke-miterlimit="10"/></g><g transform="translate(-94,-22) scale(1,1)"><path fill="none" stroke="#000000" d="M 504 164 L 663 164" stroke-miterlimit="10"/></g><g transform="translate(-94,-22) scale(1,1)"><g><path fill="none" stroke="none"/><text fill="#000000" stroke="none" font-family="Arial" font-size="13px" font-style="normal" font-weight="bold" text-decoration="none" x="567.25" y="74">Book</text></g></g><g transform="translate(-94,-22) scale(1,1)"><g><path fill="none" stroke="none"/><text fill="#000000" stroke="none" font-family="Arial" font-size="13px" font-style="normal" font-weight="normal" text-decoration="none" x="509" y="97">+Book_Id</text></g></g><g transform="translate(-94,-22) scale(1,1)"><g><path fill="none" stroke="none"/><text fill="#000000" stroke="none" font-family="Arial" font-size="13px" font-style="normal" font-weight="normal" text-decoration="none" x="509" y="112">+Author_Name</text></g></g><g transform="translate(-94,-22) scale(1,1)"><g><path fill="none" stroke="none"/><text fill="#000000" stroke="none" font-family="Arial" font-size="13px" font-style="normal" font-weight="normal" text-decoration="none" x="509" y="127">+Publisher</text></g></g><g transform="translate(-94,-22) scale(1,1)"><g><path fill="none" stroke="none"/><text fill="#000000" stroke="none" font-family="Arial" font-size="13px" font-style="normal" font-weight="normal" text-decoration="none" x="509" y="142">+Renew_info</text></g></g><g transform="translate(-94,-22) scale(1,1)"><g><path fill="none" stroke="none"/><text fill="#000000" stroke="none" font-family="Arial" font-size="13px" font-style="normal" font-weight="normal" text-decoration="none" x="509" y="157">+Show_due</text></g></g><g transform="translate(-94,-22) scale(1,1)"><g><path fill="none" stroke="none"/><text fill="#000000" stroke="none" font-family="Arial" font-size="13px" font-style="normal" font-weight="normal" text-decoration="none" x="509" y="180">+Renew_date()</text></g></g><g transform="translate(-94,-22) scale(1,1)"><g><path fill="none" stroke="none"/><text fill="#000000" stroke="none" font-family="Arial" font-size="13px" font-style="normal" font-weight="normal" text-decoration="none" x="509" y="195">+return_date()</text></g></g><g transform="translate(-94,-22) scale(1,1)"><rect fill="#C0C0C0" stroke="none" x="823" y="39" width="167" height="215" opacity="0.2"/></g><g transform="translate(-94,-22) scale(1,1)"><rect fill="#ffffff" stroke="none" x="816" y="32" width="167" height="215"/></g><g transform="translate(-94,-22) scale(1,1)"><path fill="none" stroke="#000000" d="M 816 32 L 983 32 L 983 247 L 816 247 L 816 32 Z Z" stroke-miterlimit="10"/></g><g transform="translate(-94,-22) scale(1,1)"><path fill="none" stroke="#000000" d="M 816 57 L 983 57" stroke-miterlimit="10"/></g><g transform="translate(-94,-22) scale(1,1)"><path fill="none" stroke="#000000" d="M 816 140 L 983 140" stroke-miterlimit="10"/></g><g transform="translate(-94,-22) scale(1,1)"><g><path fill="none" stroke="none"/><text fill="#000000" stroke="none" font-family="Arial" font-size="13px" font-style="normal" font-weight="bold" text-decoration="none" x="873.5" y="50">Account</text></g></g><g transform="translate(-94,-22) scale(1,1)"><g><path fill="none" stroke="none"/><text fill="#000000" stroke="none" font-family="Arial" font-size="13px" font-style="normal" font-weight="normal" text-decoration="none" x="821" y="73">+No_Books_InLib</text></g></g><g transform="translate(-94,-22) scale(1,1)"><g><path fill="none" stroke="none"/><text fill="#000000" stroke="none" font-family="Arial" font-size="13px" font-style="normal" font-weight="normal" text-decoration="none" x="821" y="88">+No_Books_return</text></g></g><g transform="translate(-94,-22) scale(1,1)"><g><path fill="none" stroke="none"/><text fill="#000000" stroke="none" font-family="Arial" font-size="13px" font-style="normal" font-weight="normal" text-decoration="none" x="821" y="103">+No_students_Lib</text></g></g><g transform="translate(-94,-22) scale(1,1)"><g><path fill="none" stroke="none"/><text fill="#000000" stroke="none" font-family="Arial" font-size="13px" font-style="normal" font-weight="normal" text-decoration="none" x="821" y="118">+No_of books_renewal</text></g></g><g transform="translate(-94,-22) scale(1,1)"><g><path fill="none" stroke="none"/><text fill="#000000" stroke="none" font-family="Arial" font-size="13px" font-style="normal" font-weight="normal" text-decoration="none" x="821" y="133">+No_of_borrowed</text></g></g><g transform="translate(-94,-22) scale(1,1)"><g><path fill="none" stroke="none"/><text fill="#000000" stroke="none" font-family="Arial" font-size="13px" font-style="normal" font-weight="normal" text-decoration="none" x="821" y="156">+calc_fine()</text></g></g><g transform="translate(-94,-22) scale(1,1)"><g><path fill="none" stroke="none"/><text fill="#000000" stroke="none" font-family="Arial" font-size="13px" font-style="normal" font-weight="normal" text-decoration="none" x="821" y="171">+Balance()</text></g></g><g transform="translate(-94,-22) scale(1,1)"><g><path fill="none" stroke="none"/><text fill="#000000" stroke="none" font-family="Arial" font-size="13px" font-style="normal" font-weight="normal" text-decoration="none" x="821" y="186">+Manage_books()</text></g></g><g transform="translate(-94,-22) scale(1,1)"><rect fill="#C0C0C0" stroke="none" x="847" y="303" width="135" height="223" opacity="0.2"/></g><g transform="translate(-94,-22) scale(1,1)"><rect fill="#ffffff" stroke="none" x="840" y="296" width="135" height="223"/></g><g transform="translate(-94,-22) scale(1,1)"><path fill="none" stroke="#000000" d="M 840 296 L 975 296 L 975 519 L 840 519 L 840 296 Z Z" stroke-miterlimit="10"/></g><g transform="translate(-94,-22) scale(1,1)"><path fill="none" stroke="#000000" d="M 840 321 L 975 321" stroke-miterlimit="10"/></g><g transform="translate(-94,-22) scale(1,1)"><path fill="none" stroke="#000000" d="M 840 389 L 975 389" stroke-miterlimit="10"/></g><g transform="translate(-94,-22) scale(1,1)"><g><path fill="none" stroke="none"/><text fill="#000000" stroke="none" font-family="Arial" font-size="13px" font-style="normal" font-weight="bold" text-decoration="none" x="852.221435546875" y="314">Library_DataBase</text></g></g><g transform="translate(-94,-22) scale(1,1)"><g><path fill="none" stroke="none"/><text fill="#000000" stroke="none" font-family="Arial" font-size="13px" font-style="normal" font-weight="normal" text-decoration="none" x="845" y="337">+No_Students</text></g></g><g transform="translate(-94,-22) scale(1,1)"><g><path fill="none" stroke="none"/><text fill="#000000" stroke="none" font-family="Arial" font-size="13px" font-style="normal" font-weight="normal" text-decoration="none" x="845" y="352">+librarian</text></g></g><g transform="translate(-94,-22) scale(1,1)"><g><path fill="none" stroke="none"/><text fill="#000000" stroke="none" font-family="Arial" font-size="13px" font-style="normal" font-weight="normal" text-decoration="none" x="845" y="367">+Books</text></g></g><g transform="translate(-94,-22) scale(1,1)"><g><path fill="none" stroke="none"/><text fill="#000000" stroke="none" font-family="Arial" font-size="13px" font-style="normal" font-weight="normal" text-decoration="none" x="845" y="382">+Attribute1</text></g></g><g transform="translate(-94,-22) scale(1,1)"><g><path fill="none" stroke="none"/><text fill="#000000" stroke="none" font-family="Arial" font-size="13px" font-style="normal" font-weight="normal" text-decoration="none" x="845" y="405">+View()</text></g></g><g transform="translate(-94,-22) scale(1,1)"><g><path fill="none" stroke="none"/><text fill="#000000" stroke="none" font-family="Arial" font-size="13px" font-style="normal" font-weight="normal" text-decoration="none" x="845" y="420">+Create()</text></g></g><g transform="translate(-94,-22) scale(1,1)"><g><path fill="none" stroke="none"/><text fill="#000000" stroke="none" font-family="Arial" font-size="13px" font-style="normal" font-weight="normal" text-decoration="none" x="845" y="435">+Update()</text></g></g><g transform="translate(-94,-22) scale(1,1)"><g><path fill="none" stroke="none"/><text fill="#000000" stroke="none" font-family="Arial" font-size="13px" font-style="normal" font-weight="normal" text-decoration="none" x="845" y="450">+Alter()</text></g></g><g transform="translate(-94,-22) scale(1,1)"><path fill="none" stroke="#000000" d="M 198 319 L 244 233" stroke-miterlimit="10"/></g><g transform="translate(-94,-22) scale(1,1)"><path fill="#000000" stroke="none" d="M 242.91863964116297 243.94671913288798 L 244 233 L 235.4948634267504 239.97586208796963 L 233.62365049258247 252.39926212256321"/></g><g transform="translate(-94,-22) scale(1,1)"><path fill="none" stroke="#000000" d="M 242.91863964116297 243.94671913288798 L 244 233 L 235.4948634267504 239.97586208796963 L 233.62365049258247 252.39926212256321 L 242.91863964116297 243.94671913288798" stroke-miterlimit="10"/></g><g transform="translate(-94,-22) scale(1,1)"><path fill="none" stroke="#000000" d="M 367 335 L 323 233" stroke-miterlimit="10"/></g><g transform="translate(-94,-22) scale(1,1)"><path fill="#000000" stroke="none" d="M 330.89057158385975 240.6641294404508 L 323 233 L 323.16011877515086 243.99883457361935 L 331.7140044515623 253.20064668316715"/></g><g transform="translate(-94,-22) scale(1,1)"><path fill="none" stroke="#000000" d="M 330.89057158385975 240.6641294404508 L 323 233 L 323.16011877515086 243.99883457361935 L 331.7140044515623 253.20064668316715 L 330.89057158385975 240.6641294404508" stroke-miterlimit="10"/></g><g transform="translate(-94,-22) scale(1,1)"><path fill="none" stroke="#000000" d="M 369 151 L 503 149" stroke-miterlimit="10"/></g><g transform="translate(-94,-22) scale(1,1)"><rect fill="#C0C0C0" stroke="none" x="567" y="343" width="160" height="140" opacity="0.2"/></g><g transform="translate(-94,-22) scale(1,1)"><rect fill="#ffffff" stroke="none" x="560" y="336" width="160" height="140"/></g><g transform="translate(-94,-22) scale(1,1)"><path fill="none" stroke="#000000" d="M 560 336 L 720 336 L 720 476 L 560 476 L 560 336 Z Z" stroke-miterlimit="10"/></g><g transform="translate(-94,-22) scale(1,1)"><path fill="none" stroke="#000000" d="M 560 361 L 720 361" stroke-miterlimit="10"/></g><g transform="translate(-94,-22) scale(1,1)"><path fill="none" stroke="#000000" d="M 560 414 L 720 414" stroke-miterlimit="10"/></g><g transform="translate(-94,-22) scale(1,1)"><path fill="none" stroke="#000000" d="M 560 467 L 720 467" stroke-miterlimit="10"/></g><g transform="translate(-94,-22) scale(1,1)"><g><path fill="none" stroke="none"/><text fill="#000000" stroke="none" font-family="Arial" font-size="13px" font-style="normal" font-weight="bold" text-decoration="none" x="617.24365234375" y="354">catalog</text></g></g><g transform="translate(-94,-22) scale(1,1)"><g><path fill="none" stroke="none"/><text fill="#000000" stroke="none" font-family="Arial" font-size="13px" font-style="normal" font-weight="normal" text-decoration="none" x="565" y="377">+CreationDate</text></g></g><g transform="translate(-94,-22) scale(1,1)"><g><path fill="none" stroke="none"/><text fill="#000000" stroke="none" font-family="Arial" font-size="13px" font-style="normal" font-weight="normal" text-decoration="none" x="565" y="392">+total_books</text></g></g><g transform="translate(-94,-22) scale(1,1)"><g><path fill="none" stroke="none"/><text fill="#000000" stroke="none" font-family="Arial" font-size="13px" font-style="normal" font-weight="normal" text-decoration="none" x="565" y="407">+titles</text></g></g><g transform="translate(-94,-22) scale(1,1)"><g><path fill="none" stroke="none"/><text fill="#000000" stroke="none" font-family="Arial" font-size="13px" font-style="normal" font-weight="normal" text-decoration="none" x="565" y="430">+View()</text></g></g><g transform="translate(-94,-22) scale(1,1)"><g><path fill="none" stroke="none"/><text fill="#000000" stroke="none" font-family="Arial" font-size="13px" font-style="normal" font-weight="normal" text-decoration="none" x="565" y="445">+Select()</text></g></g><g transform="translate(-94,-22) scale(1,1)"><g><path fill="none" stroke="none"/><text fill="#000000" stroke="none" font-family="Arial" font-size="13px" font-style="normal" font-weight="normal" text-decoration="none" x="565" y="460">+Get_book()</text></g></g><g transform="translate(-94,-22) scale(1,1)"><path fill="none" stroke="#000000" d="M 193 464 L 208 496 L 640 496 L 640 477" stroke-miterlimit="10"/></g><g transform="translate(-94,-22) scale(1,1)"><path fill="none" stroke="#000000" d="M 644.209517756016 487.16267485762415 L 640 477 L 635.790482243984 487.16267485762415" stroke-miterlimit="10"/></g><g transform="translate(-94,-22) scale(1,1)"><path fill="none" stroke="#000000" d="M 905 295 L 904 272 L 903 248" stroke-miterlimit="10" stroke-dasharray="3"/></g><g transform="translate(-94,-22) scale(1,1)"><path fill="none" stroke="#000000" d="M 907.6289461018607 257.97862004417783 L 903 248 L 899.2172092782506 258.3291090784949" stroke-miterlimit="10"/></g><g transform="translate(-94,-22) scale(1,1)"><path fill="none" stroke="#000000" d="M 664 146 L 815 141" stroke-miterlimit="10"/></g><g transform="translate(-94,-22) scale(1,1)"><path fill="#000000" stroke="none" d="M 804.9822036150123 145.5435399842994 L 815 141 L 804.7035803101388 137.12911617711944 L 793.0120509655292 141.72807778259838"/></g><g transform="translate(-94,-22) scale(1,1)"><path fill="none" stroke="#000000" d="M 804.9822036150123 145.5435399842994 L 815 141 L 804.7035803101388 137.12911617711944 L 793.0120509655292 141.72807778259838 L 804.9822036150123 145.5435399842994" stroke-miterlimit="10"/></g><g transform="translate(-94,-22) scale(1,1)"><path fill="none" stroke="#000000" d="M 624 335 L 604 241" stroke-miterlimit="10"/></g><g transform="translate(-94,-22) scale(1,1)"><path fill="#000000" stroke="none" d="M 610.2322846014085 250.06413970804982 L 604 241 L 601.9975760507563 251.8162053571248 L 608.5783681782269 262.51833043766635"/></g><g transform="translate(-94,-22) scale(1,1)"><path fill="none" stroke="#000000" d="M 610.2322846014085 250.06413970804982 L 604 241 L 601.9975760507563 251.8162053571248 L 608.5783681782269 262.51833043766635 L 610.2322846014085 250.06413970804982" stroke-miterlimit="10"/></g></g></svg>